<svg width="38" height="24" viewBox="0 0 38 24" fill="none" xmlns="http://www.w3.org/2000/svg">
<path d="M36.0151 24H1.98493C1.45899 23.9984 0.955061 23.7856 0.583166 23.4081C0.211271 23.0306 0.00162411 22.5191 0 21.9853V2.01467C0.00162411 1.48085 0.211271 0.969371 0.583166 0.591904C0.955061 0.214436 1.45899 0.00164844 1.98493 0H36.0151C36.541 0.00164844 37.0449 0.214436 37.4168 0.591904C37.7887 0.969371 37.9984 1.48085 38 2.01467V21.9853C37.9984 22.5191 37.7887 23.0306 37.4168 23.4081C37.0449 23.7856 36.541 23.9984 36.0151 24Z" fill="white"/>
<path d="M28.1625 6.93896H27.0743H22.0389H20.9507L20.2129 7.76897L17.8336 10.4527L17.0958 11.2827H16.0075H11.0644H9.97616L10.6955 10.4434L11.0367 10.0469L11.7561 9.20765H10.6678H9.26605H8.48215C7.8827 9.20765 7.39392 9.71487 7.39392 10.3235V12.4816V12.6845C7.39392 13.3023 7.8827 13.8003 8.48215 13.8003H8.78649H20.2221H21.0429C21.6424 13.8003 22.4631 13.4222 22.8597 12.9703L24.7595 10.8123L28.1625 6.93896Z" fill="#004E91"/>
<path d="M29.6104 4.42133C30.2099 4.42133 30.6986 4.92856 30.6986 5.53723V7.89813C30.6986 8.51603 30.2099 9.01403 29.6104 9.01403H29.0202H27.4247H26.3365L27.0651 8.18403L27.4247 7.76902L28.1533 6.93902H20.9415L17.0958 11.2735H9.93005L15.0669 5.46345L15.2605 5.24212C15.6663 4.79022 16.4871 4.41211 17.0865 4.41211H17.3356H29.6104V4.42133Z" fill="#FFDD00"/>
<path d="M30.6985 18.7435V18.4023C30.6985 18.3562 30.6709 18.3285 30.6063 18.3285H30.385C30.3204 18.3285 30.2743 18.3193 30.2651 18.2916C30.2466 18.2639 30.2466 18.2086 30.2466 18.1164V16.8253H30.6063C30.634 16.8253 30.6524 16.816 30.6709 16.7976C30.6893 16.7792 30.6985 16.7607 30.6985 16.733V16.3734C30.6985 16.3457 30.6893 16.3273 30.6709 16.3088C30.6524 16.2904 30.634 16.2812 30.6063 16.2812H30.2466V15.8108C30.2466 15.7832 30.2374 15.7647 30.2282 15.7555C30.2097 15.7463 30.1913 15.737 30.1729 15.737H30.1636L29.6287 15.8293C29.6011 15.8385 29.5826 15.8477 29.5642 15.8569C29.5457 15.8754 29.5365 15.8938 29.5365 15.9123V16.2719H29.1768C29.1492 16.2719 29.1307 16.2812 29.1123 16.2996C29.0938 16.318 29.0846 16.3365 29.0846 16.3642V16.6593C29.0846 16.6869 29.0938 16.7054 29.1123 16.7146C29.1307 16.733 29.1492 16.7423 29.1768 16.7515L29.5365 16.8068V18.0979C29.5365 18.2547 29.555 18.3838 29.5826 18.4853C29.6195 18.5867 29.6656 18.6605 29.721 18.7158C29.7855 18.7712 29.8593 18.8081 29.9515 18.8265C30.0437 18.845 30.1544 18.8542 30.2743 18.8542C30.3389 18.8542 30.3942 18.8542 30.4495 18.8449C30.4956 18.8357 30.5602 18.8265 30.6247 18.8173C30.6709 18.8173 30.6985 18.7896 30.6985 18.7435ZM28.7803 18.6974V18.3008C28.7803 18.2732 28.7711 18.2547 28.7526 18.2455C28.7342 18.2363 28.7157 18.2271 28.6973 18.2271H28.6881C28.6051 18.2363 28.5221 18.2455 28.4483 18.2455C28.3745 18.2547 28.2731 18.2547 28.1439 18.2547C28.0978 18.2547 28.0425 18.2455 28.0056 18.2271C27.9595 18.2086 27.9226 18.1809 27.8857 18.1441C27.8488 18.1072 27.8304 18.0518 27.8119 17.9873C27.7935 17.9227 27.7843 17.8397 27.7843 17.7383V17.3694C27.7843 17.2679 27.7935 17.1849 27.8119 17.1204C27.8304 17.0558 27.8581 17.0005 27.8857 16.9636C27.9226 16.9267 27.9595 16.899 28.0056 16.8806C28.0517 16.8622 28.0978 16.8529 28.1439 16.8529C28.2731 16.8529 28.3745 16.8529 28.4483 16.8622C28.5221 16.8714 28.6051 16.8714 28.6881 16.8806H28.6973C28.725 16.8806 28.7434 16.8714 28.7526 16.8622C28.7711 16.8529 28.7803 16.8345 28.7803 16.8068V16.4103C28.7803 16.3734 28.7711 16.3549 28.7618 16.3457C28.7434 16.3365 28.725 16.318 28.6881 16.3088C28.6235 16.2904 28.5497 16.2812 28.4483 16.2627C28.3468 16.2443 28.2362 16.2443 28.0978 16.2443C27.7843 16.2443 27.5353 16.3365 27.3416 16.5302C27.1572 16.7238 27.0557 17.0005 27.0557 17.3694V17.7383C27.0557 18.0979 27.1479 18.3838 27.3416 18.5775C27.5261 18.7712 27.7843 18.8634 28.0978 18.8634C28.2269 18.8634 28.3468 18.8542 28.4483 18.8449C28.5497 18.8265 28.6327 18.8173 28.6881 18.7988C28.725 18.7896 28.7434 18.7804 28.7618 18.7619C28.7803 18.7527 28.7803 18.7251 28.7803 18.6974ZM25.8937 18.2271C25.8384 18.2547 25.783 18.2732 25.7185 18.2916C25.6539 18.3101 25.5894 18.3193 25.5248 18.3193C25.4326 18.3193 25.3588 18.3101 25.3127 18.2824C25.2666 18.2547 25.2481 18.1994 25.2481 18.0979V18.0611C25.2481 18.0057 25.2574 17.9596 25.2666 17.9227C25.2758 17.8858 25.3035 17.8489 25.3312 17.8213C25.3588 17.7936 25.4049 17.7752 25.451 17.7567C25.4972 17.7475 25.5617 17.7383 25.6447 17.7383H25.8937V18.2271ZM26.5946 17.148C26.5946 16.982 26.5669 16.8437 26.5208 16.733C26.4747 16.6224 26.4009 16.5302 26.3179 16.4564C26.2257 16.3826 26.1243 16.3273 25.9952 16.2996C25.866 16.2627 25.7185 16.2443 25.5617 16.2443C25.4142 16.2443 25.2666 16.2535 25.1283 16.2719C24.9899 16.2904 24.8793 16.3088 24.7963 16.3365C24.7409 16.3549 24.7133 16.3826 24.7133 16.4379V16.7976C24.7133 16.8253 24.7225 16.8437 24.7317 16.8622C24.7501 16.8714 24.7686 16.8806 24.787 16.8806H24.8055C24.8424 16.8806 24.8885 16.8714 24.9346 16.8714C24.9899 16.8714 25.0453 16.8622 25.1098 16.8622C25.1744 16.8622 25.2481 16.8529 25.3219 16.8529C25.3957 16.8529 25.4695 16.8529 25.534 16.8529C25.6355 16.8529 25.7185 16.8714 25.7738 16.9083C25.8292 16.9452 25.866 17.0282 25.866 17.1573V17.314H25.6263C25.2481 17.314 24.9623 17.3694 24.7963 17.4893C24.621 17.6092 24.538 17.8028 24.538 18.0611V18.0979C24.538 18.2455 24.5565 18.3654 24.6026 18.4576C24.6487 18.5591 24.704 18.6328 24.7778 18.6974C24.8516 18.7527 24.9254 18.7988 25.0176 18.8265C25.1098 18.8542 25.202 18.8634 25.3035 18.8634C25.4326 18.8634 25.5525 18.845 25.6447 18.8081C25.7369 18.7712 25.8292 18.7251 25.9214 18.6605V18.7343C25.9214 18.7619 25.9306 18.7804 25.949 18.7988C25.9675 18.8173 25.9859 18.8265 26.0136 18.8265H26.5116C26.5393 18.8265 26.5577 18.8173 26.5762 18.7988C26.5946 18.7804 26.6038 18.7619 26.6038 18.7343V17.148H26.5946ZM24.2245 18.7435V18.4023C24.2245 18.3562 24.1968 18.3285 24.1323 18.3285H23.9201C23.8556 18.3285 23.8095 18.3193 23.8003 18.2916C23.7818 18.2639 23.7818 18.2086 23.7818 18.1164V16.8253H24.1415C24.1691 16.8253 24.1876 16.816 24.206 16.7976C24.2245 16.7792 24.2337 16.7607 24.2337 16.733V16.3734C24.2337 16.3457 24.2245 16.3273 24.206 16.3088C24.1876 16.2904 24.1691 16.2812 24.1415 16.2812H23.7818V15.8108C23.7818 15.7832 23.7726 15.7647 23.7634 15.7555C23.7449 15.7463 23.7265 15.737 23.708 15.737H23.6988L23.1639 15.8293C23.1362 15.8385 23.1178 15.8477 23.0994 15.8569C23.0809 15.8754 23.0717 15.8938 23.0717 15.9123V16.2719H22.712C22.6844 16.2719 22.6659 16.2812 22.6475 16.2996C22.629 16.318 22.6198 16.3365 22.6198 16.3642V16.6593C22.6198 16.6869 22.629 16.7054 22.6475 16.7146C22.6659 16.733 22.6844 16.7423 22.712 16.7515L23.0717 16.8068V18.0979C23.0717 18.2547 23.0901 18.3838 23.1178 18.4853C23.1547 18.5867 23.2008 18.6605 23.2561 18.7158C23.3115 18.7712 23.3945 18.8081 23.4867 18.8265C23.5789 18.845 23.6896 18.8542 23.8095 18.8542C23.874 18.8542 23.9294 18.8542 23.9847 18.8449C24.0308 18.8357 24.0954 18.8265 24.1599 18.8173C24.1968 18.8173 24.2245 18.7896 24.2245 18.7435ZM22.2878 18.7343V17.2587C22.2878 17.1204 22.2786 16.9913 22.2509 16.8622C22.2325 16.7423 22.1864 16.6316 22.131 16.5394C22.0757 16.4472 21.9927 16.3734 21.8912 16.3273C21.7898 16.2719 21.6607 16.2443 21.4947 16.2443C21.3563 16.2443 21.2272 16.2627 21.1166 16.2996C21.0059 16.3365 20.8952 16.3918 20.7661 16.484V16.3734C20.7661 16.3457 20.7569 16.3273 20.7385 16.3088C20.72 16.2904 20.7016 16.2812 20.6739 16.2812H20.1759C20.1482 16.2812 20.1298 16.2904 20.1113 16.3088C20.0929 16.3273 20.0837 16.3457 20.0837 16.3734V18.7343C20.0837 18.7619 20.0929 18.7804 20.1113 18.7988C20.1298 18.8173 20.1482 18.8265 20.1759 18.8265H20.7108C20.7385 18.8265 20.7569 18.8173 20.7753 18.7988C20.7938 18.7804 20.803 18.7619 20.803 18.7343V16.9913C20.8768 16.9544 20.9506 16.9175 21.0243 16.8898C21.0889 16.8622 21.1627 16.8529 21.2272 16.8529C21.2918 16.8529 21.3471 16.8622 21.3932 16.8714C21.4393 16.8806 21.467 16.9083 21.4947 16.9359C21.5223 16.9728 21.5316 17.0097 21.5408 17.065C21.55 17.1204 21.55 17.1849 21.55 17.2587V18.7343C21.55 18.7619 21.5592 18.7804 21.5777 18.7988C21.5961 18.8173 21.6146 18.8265 21.6422 18.8265H22.1771C22.2048 18.8265 22.2232 18.8173 22.2417 18.7988C22.2786 18.7804 22.2878 18.7527 22.2878 18.7343ZM18.9309 17.7106C18.9309 18.0703 18.8018 18.2547 18.5343 18.2547C18.4052 18.2547 18.3038 18.2086 18.2392 18.1164C18.1747 18.0242 18.1378 17.8858 18.1378 17.7106V17.3971C18.1378 17.2126 18.1747 17.0835 18.2392 16.9913C18.3038 16.899 18.4052 16.8529 18.5343 16.8529C18.7925 16.8529 18.9309 17.0374 18.9309 17.3971V17.7106ZM19.6502 17.3971C19.6502 17.2218 19.6226 17.0558 19.5764 16.9175C19.5303 16.7792 19.4566 16.6593 19.3643 16.5578C19.2721 16.4564 19.1522 16.3826 19.0139 16.3273C18.8755 16.2719 18.7188 16.2443 18.5343 16.2443C18.3499 16.2443 18.1931 16.2719 18.0548 16.3273C17.9164 16.3826 17.7965 16.4564 17.7043 16.5578C17.6121 16.6593 17.5383 16.7792 17.4922 16.9175C17.4461 17.0558 17.4184 17.2218 17.4184 17.3971V17.7106C17.4184 17.8858 17.4461 18.0518 17.4922 18.1902C17.5383 18.3285 17.6121 18.4484 17.7043 18.5498C17.7965 18.6513 17.9164 18.7251 18.0548 18.7804C18.1931 18.8357 18.3499 18.8634 18.5343 18.8634C18.7188 18.8634 18.8755 18.8357 19.0139 18.7804C19.1522 18.7251 19.2721 18.6513 19.3643 18.5498C19.4566 18.4484 19.5303 18.3285 19.5764 18.1902C19.6226 18.0518 19.6502 17.8858 19.6502 17.7106V17.3971ZM17.1786 18.6974V18.3008C17.1786 18.2732 17.1694 18.2547 17.151 18.2455C17.1325 18.2363 17.1141 18.2271 17.0864 18.2271H17.0772C16.9942 18.2363 16.9112 18.2455 16.8374 18.2455C16.7636 18.2455 16.6622 18.2547 16.5331 18.2547C16.487 18.2547 16.4316 18.2455 16.3948 18.2271C16.3486 18.2086 16.3118 18.1809 16.2749 18.1441C16.238 18.1072 16.2195 18.0518 16.2011 17.9873C16.1826 17.9227 16.1734 17.8397 16.1734 17.7383V17.3694C16.1734 17.2679 16.1826 17.1849 16.2011 17.1204C16.2195 17.0558 16.2472 17.0005 16.2749 16.9636C16.3118 16.9267 16.3486 16.899 16.3948 16.8806C16.4409 16.8622 16.487 16.8529 16.5331 16.8529C16.6622 16.8529 16.7636 16.8529 16.8374 16.8622C16.9112 16.8714 16.9942 16.8714 17.0772 16.8806H17.0864C17.1141 16.8806 17.1325 16.8714 17.151 16.8622C17.1694 16.8529 17.1786 16.8345 17.1786 16.8068V16.4103C17.1786 16.3734 17.1694 16.3549 17.1602 16.3457C17.1418 16.3365 17.1233 16.318 17.0864 16.3088C17.0219 16.2904 16.9481 16.2812 16.8466 16.2627C16.7452 16.2443 16.6345 16.2443 16.4962 16.2443C16.1826 16.2443 15.9336 16.3365 15.74 16.5302C15.5555 16.7238 15.4541 17.0005 15.4541 17.3694V17.7383C15.4541 18.0979 15.5463 18.3838 15.74 18.5775C15.9244 18.7712 16.1826 18.8634 16.4962 18.8634C16.6253 18.8634 16.7452 18.8542 16.8466 18.8449C16.9481 18.8265 17.0219 18.8173 17.0864 18.7988C17.1233 18.7896 17.1418 18.7804 17.1602 18.7619C17.1786 18.7527 17.1786 18.7251 17.1786 18.6974ZM15.0022 18.7343V17.2587C15.0022 17.1204 14.993 16.9913 14.9653 16.8622C14.9469 16.7423 14.9007 16.6316 14.8454 16.5394C14.7901 16.4472 14.7071 16.3734 14.6056 16.3273C14.5042 16.2719 14.3751 16.2443 14.2091 16.2443C14.0707 16.2443 13.9416 16.2627 13.831 16.2996C13.7203 16.3365 13.6096 16.3918 13.4805 16.484V16.3734C13.4805 16.3457 13.4713 16.3273 13.4528 16.3088C13.4344 16.2904 13.416 16.2812 13.3883 16.2812H12.8903C12.8626 16.2812 12.8442 16.2904 12.8257 16.3088C12.8073 16.3273 12.7981 16.3457 12.7981 16.3734V18.7343C12.7981 18.7619 12.8073 18.7804 12.8257 18.7988C12.8442 18.8173 12.8626 18.8265 12.8903 18.8265H13.4252C13.4528 18.8265 13.4713 18.8173 13.4897 18.7988C13.5082 18.7804 13.5174 18.7619 13.5174 18.7343V16.9913C13.5912 16.9544 13.665 16.9175 13.7387 16.8898C13.8033 16.8622 13.8771 16.8529 13.9416 16.8529C14.0062 16.8529 14.0615 16.8622 14.1076 16.8714C14.1537 16.8806 14.1814 16.9083 14.2091 16.9359C14.2367 16.9728 14.246 17.0097 14.2552 17.065C14.2644 17.1204 14.2644 17.1849 14.2644 17.2587V18.7343C14.2644 18.7619 14.2736 18.7804 14.2921 18.7988C14.3105 18.8173 14.329 18.8265 14.3566 18.8265H14.8915C14.9192 18.8265 14.9376 18.8173 14.9561 18.7988C14.9837 18.7804 15.0022 18.7527 15.0022 18.7343ZM11.5715 18.2271C11.5162 18.2547 11.4608 18.2732 11.3963 18.2916C11.3317 18.3101 11.2672 18.3193 11.2026 18.3193C11.1104 18.3193 11.0366 18.3101 10.9905 18.2824C10.9444 18.2547 10.9259 18.1994 10.9259 18.0979V18.0611C10.9259 18.0057 10.9352 17.9596 10.9444 17.9227C10.9536 17.8858 10.9813 17.8489 11.0089 17.8213C11.0366 17.7936 11.0827 17.7752 11.1288 17.7567C11.1749 17.7475 11.2395 17.7383 11.3225 17.7383H11.5715V18.2271ZM12.2816 17.148C12.2816 16.982 12.2539 16.8437 12.2078 16.733C12.1617 16.6224 12.0879 16.5302 12.0049 16.4564C11.9127 16.3826 11.8113 16.3273 11.6822 16.2996C11.5531 16.2627 11.4055 16.2443 11.2487 16.2443C11.1012 16.2443 10.9536 16.2535 10.8153 16.2719C10.6769 16.2904 10.5663 16.3088 10.4833 16.3365C10.4279 16.3549 10.4003 16.3826 10.4003 16.4379V16.7976C10.4003 16.8253 10.4095 16.8437 10.4187 16.8622C10.4372 16.8714 10.4556 16.8806 10.474 16.8806H10.4925C10.5294 16.8806 10.5755 16.8714 10.6216 16.8714C10.6769 16.8714 10.7323 16.8622 10.806 16.8622C10.8706 16.8622 10.9444 16.8529 11.0182 16.8529C11.0919 16.8529 11.1657 16.8529 11.2303 16.8529C11.3317 16.8529 11.4147 16.8714 11.4701 16.9083C11.5254 16.9452 11.5623 17.0282 11.5623 17.1573V17.314H11.3225C10.9444 17.314 10.6585 17.3694 10.4925 17.4893C10.3265 17.6092 10.2343 17.8028 10.2343 18.0611V18.0979C10.2343 18.2455 10.2527 18.3654 10.2988 18.4576C10.3449 18.5591 10.4003 18.6328 10.474 18.6974C10.5478 18.7527 10.6216 18.7988 10.7138 18.8265C10.806 18.8542 10.8983 18.8634 10.9997 18.8634C11.1288 18.8634 11.2487 18.845 11.3409 18.8081C11.4332 18.7712 11.5254 18.7251 11.6176 18.6605V18.7343C11.6176 18.7619 11.6268 18.7804 11.6453 18.7988C11.6637 18.8173 11.6822 18.8265 11.7098 18.8265H12.2078C12.2355 18.8265 12.2539 18.8173 12.2724 18.7988C12.2908 18.7804 12.3001 18.7619 12.3001 18.7343V17.148H12.2816ZM9.10914 17.8489C9.10914 17.9688 9.06303 18.0703 8.98003 18.1348C8.89703 18.1994 8.73103 18.2363 8.5097 18.2363H8.43592C8.39903 18.2363 8.36214 18.2363 8.32525 18.2363C8.28836 18.2363 8.25147 18.2363 8.21458 18.2363H8.1408V17.4063H8.63881C8.81403 17.4063 8.94314 17.4432 9.0077 17.5262C9.07226 17.6092 9.10914 17.7014 9.10914 17.8028V17.8489ZM9.0907 16.5302C9.0907 16.5763 9.08148 16.6224 9.07226 16.6685C9.05381 16.7146 9.03537 16.7515 8.99848 16.7792C8.96159 16.8068 8.91548 16.8345 8.86014 16.8529C8.80481 16.8714 8.73103 16.8806 8.63881 16.8806H8.1408V16.1152C8.15925 16.1152 8.17769 16.1152 8.20536 16.1152C8.23303 16.1152 8.26992 16.1152 8.30681 16.1152H8.40825H8.48203C8.71259 16.1152 8.86937 16.1428 8.96159 16.1982C9.05381 16.2535 9.09992 16.3457 9.09992 16.4656V16.5302H9.0907ZM9.84693 17.8028C9.84693 17.6461 9.81004 17.5169 9.73626 17.4063C9.66248 17.2956 9.57026 17.2034 9.45037 17.148C9.57026 17.0927 9.66248 17.0005 9.72704 16.8898C9.79159 16.7699 9.82848 16.6408 9.82848 16.5025V16.4195C9.82848 16.2443 9.79159 16.0967 9.72704 15.9768C9.66248 15.8569 9.56104 15.7647 9.44115 15.6909C9.32126 15.6171 9.1737 15.571 8.99848 15.5341C8.82325 15.5065 8.63881 15.488 8.4267 15.488C8.35292 15.488 8.27914 15.488 8.20536 15.488C8.13158 15.488 8.0578 15.4973 7.98403 15.4973C7.91025 15.4973 7.84569 15.5065 7.78114 15.5157C7.71658 15.5249 7.67047 15.5249 7.63358 15.5341C7.55058 15.5526 7.48602 15.571 7.44913 15.6171C7.41224 15.654 7.3938 15.7278 7.3938 15.8293V18.5222C7.3938 18.6236 7.41224 18.6882 7.44913 18.7343C7.48602 18.7712 7.55058 18.7988 7.63358 18.8173C7.67969 18.8265 7.73502 18.8357 7.79036 18.8357C7.85491 18.8449 7.91947 18.845 7.99325 18.8542C8.06703 18.8542 8.1408 18.8634 8.21458 18.8634C8.28836 18.8634 8.37136 18.8634 8.44514 18.8634C8.63881 18.8634 8.82325 18.8449 8.98925 18.8173C9.15526 18.7896 9.31204 18.7343 9.43193 18.6605C9.56104 18.5867 9.65326 18.4853 9.73626 18.3562C9.81004 18.2271 9.84693 18.0611 9.84693 17.8674V17.8028Z" fill="#004E91"/>
<path opacity="0.25" d="M35.564 24H2.436C1.092 24 0 22.923 0 21.6V2.4C0 1.077 1.092 0 2.436 0H35.564C36.908 0 38 1.077 38 2.4V21.6C38 22.923 36.908 24 35.564 24ZM2.436 0.959999C1.63 0.959999 0.973999 1.606 0.973999 2.4V21.6C0.973999 22.394 1.63 23.04 2.436 23.04H35.564C36.37 23.04 37.026 22.394 37.026 21.6V2.4C37.026 1.606 36.37 0.959999 35.564 0.959999H2.436Z" fill="#A7A8AB"/>
</svg>
