<?xml version="1.0" standalone="no"?><!DOCTYPE svg PUBLIC "-//W3C//DTD SVG 1.1//EN" "http://www.w3.org/Graphics/SVG/1.1/DTD/svg11.dtd"><svg class="icon" width="200px" height="200.00px" viewBox="0 0 1024 1024" version="1.1" xmlns="http://www.w3.org/2000/svg"><path fill="#333333" d="M891.76735 284.714484L637.317147 157.462265c-34.239825-17.119913-90.613764-17.119913-124.853589 0L258.013355 284.714484c-36.638455 18.373463-65.370847 64.825424-65.370847 105.770975v65.098647c0 12.58769 1.942235 23.794939 4.978385 33.9226-75.965136 27.352975-130.759089 99.44285-130.759089 184.707793 0 108.606557 88.378863 196.98542 196.98542 196.985419 57.400315 0 108.671025-25.103748 144.709822-64.417125 7.046486 8.337899 15.783475 15.283078 25.941836 20.363794l77.965699 38.982849c17.119913 8.559956 39.255049 13.248745 62.426795 13.248746 23.171746 0 45.306882-4.688789 62.426794-13.248746l254.450203-127.252219c36.638455-18.319228 65.370847-64.771189 65.370847-105.770975V390.485459c-0.001023-40.999786-28.733415-87.451748-65.37187-105.770975z m-608.783277 49.941435L537.434276 207.4037c18.646686-9.377578 56.265468-9.377578 74.912153 0l254.450203 127.252219c4.538363 2.275833 8.972349 5.67321 13.074783 9.789971L612.346429 478.210429c-19.628036 9.813506-55.284117 9.813506-74.912153 0L269.922592 344.428493c4.099365-4.108574 8.529257-7.499811 13.061481-9.772574z m-19.137873 480.713437c-77.856205 0-141.154857-63.298652-141.154857-141.154857s63.298652-141.154857 141.154857-141.154857 141.154857 63.298652 141.154857 141.154857c0 19.034519-3.88754 37.146015-10.740622 53.727668-0.272199 0.77055-0.712221 1.49198-0.960884 2.2656-21.718651 50.03251-71.503521 85.161588-129.453351 85.161589zM459.468576 777.204128c-6.379291-3.216251-11.012821-8.559956-13.085016-15.157212-2.016937-6.597255-1.199315-13.684674 2.344394-19.954471 2.835581-5.070482 12.103666-25.024953 12.103666-67.87897 0-108.606557-88.378863-196.98542-196.98542-196.98542l-11.667737 0.217965c-1.635243-3.761674-3.707438-10.958586-3.707438-21.862937v-59.455114l263.992533 132.023896c10.236132 5.118578 22.121833 8.341992 34.512025 10.519588v280.484136c-3.27151-0.947582-6.91755-1.64957-9.541307-2.967588l-77.9657-38.983873z m407.328056-88.26937L612.346429 816.186977c-2.623757 1.319042-6.269797 2.02103-9.541307 2.967588V538.670429c12.390191-2.177596 24.275893-5.40101 34.512025-10.519587L901.308657 396.155599v236.948596c0 20.173458-16.46602 46.780443-34.512025 55.830563z"  /><path fill="#333333" d="M308.335461 669.688415c7.687076 0 13.957897-6.269797 13.957896-13.957896s-6.269797-13.957897-13.957896-13.957897h-22.844288l26.76969-26.76969c5.452175-5.452175 5.452175-14.284331 0-19.736507-5.452175-5.452175-14.284331-5.452175-19.736507 0l-31.949666 31.949666-32.2761-32.2761c-5.452175-5.452175-14.284331-5.452175-19.736507 0s-5.452175 14.284331 0 19.736506l27.097148 27.097148h-21.862937c-7.687076 0-13.957897 6.269797-13.957896 13.957897s6.269797 13.957897 13.957896 13.957897h33.203216v21.699207h-33.476439c-7.687076 0-13.957897 6.269797-13.957896 13.957897s6.269797 13.957897 13.957896 13.957897h33.476439v29.877471c0 7.687076 6.269797 13.957897 13.957897 13.957896 7.687076 0 13.957897-6.269797 13.957896-13.957896v-29.877471h33.203217c7.687076 0 13.957897-6.269797 13.957896-13.957897s-6.269797-13.957897-13.957896-13.957897H274.915303v-21.699207h33.420158z"  /></svg>