<svg width="38" height="24" viewBox="0 0 38 24" fill="none" xmlns="http://www.w3.org/2000/svg">
<path d="M36.0151 24H1.98493C1.45899 23.9984 0.955061 23.7856 0.583166 23.4081C0.211271 23.0306 0.00162411 22.5191 0 21.9853V2.01467C0.00162411 1.48085 0.211271 0.969371 0.583166 0.591904C0.955061 0.214436 1.45899 0.00164844 1.98493 0H36.0151C36.541 0.00164844 37.0449 0.214436 37.4168 0.591904C37.7887 0.969371 37.9984 1.48085 38 2.01467V21.9853C37.9984 22.5191 37.7887 23.0306 37.4168 23.4081C37.0449 23.7856 36.541 23.9984 36.0151 24Z" fill="white"/>
<path d="M26.4073 12.0016H24.3333C24.1029 12.0016 23.9172 11.8191 23.9172 11.5887C23.9172 11.3582 24.1029 11.1566 24.3333 11.1566H27.4891V9.60107H24.3333C23.2323 9.60107 22.3361 10.5005 22.3361 11.5983C22.3361 12.6961 23.2323 13.5955 24.3333 13.5955H26.3785C26.609 13.5955 26.7946 13.7779 26.7946 14.0084C26.7946 14.2388 26.609 14.4084 26.3785 14.4084H21.9936C21.6224 15.119 21.2607 15.7271 20.5245 16.0312H26.4073C27.4891 16.0152 28.3757 15.0998 28.3757 14.0116C28.3757 12.9201 27.4891 12.0176 26.4073 12.0016Z" fill="#71706F"/>
<path d="M18.4601 9.60107C16.7029 9.60107 15.2722 11.0414 15.2722 12.8081V12.8753V19.4815H16.8629V16.0312H18.4569C20.214 16.0312 21.6383 14.5717 21.6383 12.8049C21.6415 11.035 20.2172 9.60107 18.4601 9.60107ZM18.4601 14.4052H16.8629V12.8017C16.8629 11.9055 17.5767 11.1758 18.4601 11.1758C19.3434 11.1758 20.0636 11.9055 20.0636 12.8017C20.0636 13.6979 19.3434 14.4052 18.4601 14.4052Z" fill="#71706F"/>
<path d="M10.2376 16.0314C8.73335 16.0314 7.46909 14.9591 7.12663 13.5605C7.12663 13.5605 7.02741 13.0964 7.02741 12.7923C7.02741 12.4883 7.12022 12.021 7.12022 12.021C7.46589 10.6255 8.72695 9.58527 10.228 9.58527C11.9948 9.58527 13.4447 11.0192 13.4447 12.7859V13.5637H8.75255C9.03101 14.1046 9.59112 14.4086 10.2376 14.4086H14.4561L14.4625 9.82852C14.4625 9.14678 13.9056 8.58667 13.2206 8.58667H7.24185C6.56011 8.58667 6 9.12758 6 9.81252V15.7913C6 16.473 6.56011 17.0492 7.24185 17.0492H13.2206C13.832 17.0492 14.3441 16.6107 14.4433 16.0346H10.2376V16.0314Z" fill="#B90466"/>
<path d="M10.2313 11.1023C9.58796 11.1023 9.02785 11.496 8.74939 12.0049H11.7132C11.4347 11.496 10.8746 11.1023 10.2313 11.1023Z" fill="#B90466"/>
<path d="M12.939 6.64053C12.939 5.18104 11.726 4 10.2313 4C8.76218 4 7.56514 5.14583 7.52673 6.57011C7.52673 6.57652 7.52673 6.58292 7.52673 6.58932V7.37988C7.52673 7.4759 7.60355 7.56871 7.70277 7.56871H8.69817C8.79419 7.56871 8.8806 7.4759 8.8806 7.37988V6.64053C8.8806 5.91078 9.48553 5.31866 10.2345 5.31866C10.9834 5.31866 11.5883 5.91078 11.5883 6.64053V7.37988C11.5883 7.4759 11.6652 7.56871 11.7644 7.56871H12.7598C12.8558 7.56871 12.9422 7.4759 12.9422 7.37988V6.64053H12.939Z" fill="#B90466"/>
<path d="M20.246 18.0956L20.102 18.9118C20.0316 19.3247 19.7595 19.5135 19.3947 19.5135C19.0842 19.5135 18.8442 19.3119 18.9146 18.9118L19.0586 18.0956H19.2794L19.1354 18.9118C19.0906 19.1679 19.2058 19.3119 19.4203 19.3119C19.6411 19.3119 19.8332 19.1807 19.878 18.9118L20.022 18.0956H20.246ZM19.3723 17.8396C19.3723 17.9068 19.4235 17.9388 19.4811 17.9388C19.5515 17.9388 19.6283 17.8908 19.6283 17.7948C19.6283 17.7276 19.5835 17.6956 19.5259 17.6956C19.4523 17.6956 19.3723 17.7404 19.3723 17.8396ZM19.8524 17.8364C19.8524 17.9068 19.9068 17.9388 19.9644 17.9388C20.0252 17.9388 20.1084 17.8908 20.1084 17.798C20.1084 17.7308 20.0604 17.6956 20.006 17.6956C19.9356 17.6956 19.8524 17.7404 19.8524 17.8364Z" fill="#71706F"/>
<path d="M20.7805 18.0955L20.6813 18.6588C20.7677 18.5435 20.9406 18.4827 21.059 18.4827C21.3086 18.4827 21.4783 18.63 21.4783 18.8988C21.4783 19.2797 21.2126 19.5101 20.8734 19.5101C20.7421 19.5101 20.6301 19.4621 20.5597 19.3373L20.5213 19.4845H20.326L20.5725 18.0955H20.7805ZM20.6269 19.046C20.6173 19.2093 20.7261 19.3149 20.8798 19.3149C21.075 19.3149 21.2606 19.1645 21.2734 18.9372C21.283 18.7708 21.1742 18.6716 21.0238 18.6716C20.8318 18.6716 20.6365 18.8284 20.6269 19.046Z" fill="#71706F"/>
<path d="M21.8847 19.0751C21.8783 19.2095 21.9839 19.3215 22.1632 19.3215C22.2624 19.3215 22.3936 19.2831 22.4672 19.2159L22.5792 19.3439C22.4576 19.456 22.2784 19.5136 22.1248 19.5136C21.8399 19.5136 21.6735 19.3439 21.6735 19.0815C21.6735 18.7358 21.9455 18.4766 22.2944 18.4766C22.6145 18.4766 22.7937 18.6686 22.6849 19.0751H21.8847ZM22.5184 18.9054C22.5344 18.7358 22.4352 18.6654 22.2688 18.6654C22.1184 18.6654 21.9807 18.7358 21.9199 18.9054H22.5184Z" fill="#71706F"/>
<path d="M23.2354 18.499L23.2258 18.6302C23.3218 18.5054 23.437 18.4766 23.5426 18.4766C23.6387 18.4766 23.7251 18.5118 23.7699 18.5598L23.6451 18.739C23.6003 18.6974 23.5554 18.6782 23.4818 18.6782C23.341 18.6782 23.2002 18.7646 23.1682 18.9471L23.0722 19.4784H22.8673L23.0433 18.4958H23.2354V18.499Z" fill="#71706F"/>
<path d="M24.7654 18.4988L24.8678 19.2765L25.2455 18.4988H25.4727L24.9574 19.4814H24.7174L24.6182 18.8348L24.4613 19.1549L24.2885 19.4814H24.0484L23.8756 18.4988H24.1061L24.2085 19.2765L24.5862 18.4988H24.7654Z" fill="#71706F"/>
<path d="M25.7383 19.0751C25.7319 19.2095 25.8376 19.3215 26.0168 19.3215C26.116 19.3215 26.2472 19.2831 26.3209 19.2159L26.4329 19.3439C26.3113 19.456 26.132 19.5136 25.9784 19.5136C25.6935 19.5136 25.5271 19.3439 25.5271 19.0815C25.5271 18.7358 25.7992 18.4766 26.148 18.4766C26.4681 18.4766 26.6473 18.6686 26.5385 19.0751H25.7383ZM26.3721 18.9054C26.3881 18.7358 26.2889 18.6654 26.1224 18.6654C25.972 18.6654 25.8344 18.7358 25.7735 18.9054H26.3721Z" fill="#71706F"/>
<path d="M27.1051 18.4988L26.9323 19.4814H26.7274L26.9003 18.4988H27.1051ZM26.9227 18.2332C26.9227 18.3036 26.9739 18.3388 27.0315 18.3388C27.1115 18.3388 27.1851 18.2876 27.1851 18.1884C27.1851 18.1212 27.1371 18.0828 27.0827 18.0828C27.0059 18.086 26.9227 18.134 26.9227 18.2332Z" fill="#71706F"/>
<path d="M28.0172 18.742C27.9532 18.6716 27.87 18.6492 27.7739 18.6492C27.6395 18.6492 27.5403 18.694 27.5403 18.7804C27.5403 18.854 27.6171 18.8829 27.7355 18.8925C27.9148 18.9085 28.1452 18.9693 28.0972 19.2221C28.062 19.4046 27.8796 19.5134 27.6235 19.5134C27.4635 19.5134 27.3098 19.4782 27.2042 19.3309L27.3387 19.1837C27.4123 19.2861 27.5435 19.3277 27.6587 19.3309C27.7579 19.3309 27.8732 19.2957 27.8924 19.2029C27.9116 19.1133 27.8315 19.0813 27.6875 19.0685C27.5179 19.0525 27.3355 18.9917 27.3355 18.8028C27.3355 18.5564 27.6011 18.47 27.8027 18.47C27.9564 18.47 28.0652 18.5052 28.158 18.6012L28.0172 18.742Z" fill="#71706F"/>
<path d="M28.6701 18.4988L28.5773 19.0269C28.5453 19.1965 28.6221 19.3117 28.7949 19.3117C28.9582 19.3117 29.0958 19.1773 29.1214 19.0141L29.211 18.4988H29.4159L29.243 19.4814H29.0574L29.0702 19.3405C28.955 19.4494 28.8397 19.5038 28.7021 19.5038C28.4589 19.5038 28.3148 19.3309 28.3692 19.0333L28.4621 18.502H28.6701V18.4988Z" fill="#71706F"/>
<path d="M30.3217 19.4815L30.4177 18.9566C30.4465 18.7869 30.3889 18.6749 30.2001 18.6749C30.0368 18.6749 29.8992 18.8061 29.8704 18.9694L29.7808 19.4847H29.5759L29.7488 18.5021H29.9376L29.9216 18.6461C30.0368 18.5405 30.1552 18.4893 30.2833 18.4893C30.5233 18.4893 30.6801 18.6557 30.6257 18.9566L30.5297 19.4847H30.3217V19.4815Z" fill="#71706F"/>
<path d="M31.0194 19.616C31.0066 19.7504 31.109 19.8048 31.2818 19.8048C31.4354 19.8048 31.5987 19.7216 31.6371 19.504L31.6659 19.3343C31.5763 19.4592 31.413 19.5104 31.2882 19.5104C31.0354 19.5104 30.8593 19.3599 30.8593 19.0879C30.8593 18.7006 31.1474 18.4766 31.4738 18.4766C31.6115 18.4766 31.7363 18.5438 31.7811 18.6558L31.8163 18.499H32.0148L31.8419 19.5104C31.7779 19.8848 31.4995 20.0001 31.2466 20.0001C30.9425 20.0001 30.7761 19.8528 30.8177 19.616H31.0194ZM31.077 19.0527C31.077 19.2223 31.1858 19.3215 31.3458 19.3215C31.7715 19.3215 31.8867 18.6686 31.461 18.6686C31.2594 18.6686 31.077 18.819 31.077 19.0527Z" fill="#71706F"/>
<path opacity="0.25" d="M35.564 24H2.436C1.092 24 0 22.923 0 21.6V2.4C0 1.077 1.092 0 2.436 0H35.564C36.908 0 38 1.077 38 2.4V21.6C38 22.923 36.908 24 35.564 24ZM2.436 0.959999C1.63 0.959999 0.973999 1.606 0.973999 2.4V21.6C0.973999 22.394 1.63 23.04 2.436 23.04H35.564C36.37 23.04 37.026 22.394 37.026 21.6V2.4C37.026 1.606 36.37 0.959999 35.564 0.959999H2.436Z" fill="#A7A8AB"/>
</svg>
