<svg width="38" height="24" viewBox="0 0 38 24" fill="none" xmlns="http://www.w3.org/2000/svg">
<path d="M36.0151 24H1.98493C1.45899 23.9984 0.955061 23.7856 0.583166 23.4081C0.211271 23.0306 0.00162411 22.5191 0 21.9853V2.01467C0.00162411 1.48085 0.211271 0.969371 0.583166 0.591904C0.955061 0.214436 1.45899 0.00164844 1.98493 0H36.0151C36.541 0.00164844 37.0449 0.214436 37.4168 0.591904C37.7887 0.969371 37.9984 1.48085 38 2.01467V21.9853C37.9984 22.5191 37.7887 23.0306 37.4168 23.4081C37.0449 23.7856 36.541 23.9984 36.0151 24Z" fill="white"/>
<path d="M3 7.46545C3 6.10458 4.11254 5 5.48154 5H32.5185C33.8875 5 35 6.10458 35 7.46545V16.2804C35 17.6413 33.8911 18.7459 32.5185 18.7459H5.48154C4.11254 18.7495 3 17.6449 3 16.284V7.46545Z" fill="#000268"/>
<path d="M4.0188 7.5521V16.201C4.0188 17.0529 4.71233 17.7424 5.56841 17.7424H19.7316V6.01074H5.56841C4.71233 6.01074 4.0188 6.7002 4.0188 7.5521ZM23.3943 11.8332C23.3943 12.3855 23.1234 12.7609 22.6719 12.7609C22.2746 12.7609 21.9423 12.3819 21.9423 11.8766C21.9423 11.3604 22.2348 10.9741 22.6719 10.9741C23.1343 10.9777 23.3943 11.3748 23.3943 11.8332ZM20.743 14.9918H21.9387V13.1147H21.9531C22.1807 13.5262 22.6322 13.6778 23.0476 13.6778C24.077 13.6778 24.6261 12.8295 24.6261 11.808C24.6261 10.9705 24.1023 10.0645 23.1451 10.0645C22.5997 10.0645 22.0976 10.2847 21.8556 10.7684H21.8411V10.1439H20.7394V14.9918H20.743ZM26.2588 12.501C26.2588 12.1689 26.5766 12.0426 26.9812 12.0426C27.1618 12.0426 27.3316 12.0534 27.4869 12.0607C27.4869 12.4649 27.2015 12.8764 26.75 12.8764C26.4719 12.8801 26.2588 12.7429 26.2588 12.501ZM28.6717 13.5984C28.6175 13.3277 28.6067 13.0533 28.6067 12.7826V11.4939C28.6067 10.4399 27.8445 10.0609 26.9595 10.0609C26.4502 10.0609 26.0023 10.1331 25.5797 10.3063L25.6014 11.1149C25.9337 10.9272 26.3166 10.855 26.7031 10.855C27.1329 10.855 27.4869 10.9813 27.4941 11.4542C27.3424 11.4289 27.1293 11.4073 26.9379 11.4073C26.3021 11.4073 25.1535 11.5336 25.1535 12.5877C25.1535 13.3385 25.7639 13.6742 26.4466 13.6742C26.9379 13.6742 27.2702 13.4829 27.5411 13.0497H27.5555C27.5555 13.2302 27.5736 13.4071 27.5808 13.5948H28.6717V13.5984ZM29.2063 14.9918C29.4519 15.0459 29.6975 15.0712 29.9504 15.0712C31.0449 15.0712 31.3049 14.2265 31.6445 13.3602L32.9123 10.1439H31.7167L31.0051 12.4H30.9943L30.2502 10.1439H28.9643L30.3658 13.6814C30.2791 13.9882 30.0551 14.1579 29.7626 14.1579C29.5964 14.1579 29.4519 14.1362 29.2894 14.0857L29.2063 14.9918Z" fill="white"/>
<path d="M6.93731 11.8404C6.93731 11.3675 7.16849 10.9777 7.61639 10.9777C8.1546 10.9777 8.37855 11.4072 8.37855 11.7935C8.37855 12.3241 8.03901 12.6815 7.61639 12.6815C7.25518 12.6815 6.93731 12.3783 6.93731 11.8404ZM9.53444 10.1402H8.4508V10.7647H8.43996C8.18711 10.3388 7.77533 10.0608 7.26601 10.0608C6.18959 10.0608 5.70557 10.8297 5.70557 11.8585C5.70557 12.88 6.29796 13.5984 7.24434 13.5984C7.72476 13.5984 8.12209 13.4106 8.40745 13.0064H8.4219V13.1941C8.4219 13.8691 8.04985 14.194 7.35993 14.194C6.86145 14.194 6.55442 14.0893 6.18959 13.9088L6.12819 14.8509C6.40632 14.952 6.87951 15.0711 7.45023 15.0711C8.84452 15.0711 9.53444 14.6127 9.53444 13.1941V10.1402ZM11.5536 8.69995H10.358V9.57712H11.5536V8.69995ZM10.358 13.5984H11.5536V10.1402H10.358V13.5984ZM14.8804 10.1005C14.7612 10.0825 14.6131 10.0608 14.4759 10.0608C13.9593 10.0608 13.6595 10.3388 13.4536 10.7792H13.4392V10.1438H12.3519V13.602H13.5475V12.1436C13.5475 11.465 13.8618 11.0607 14.4181 11.0607C14.5589 11.0607 14.689 11.0607 14.8226 11.1004L14.8804 10.1005ZM16.9393 12.8403C16.3867 12.8403 16.1627 12.3819 16.1627 11.8729C16.1627 11.3567 16.3867 10.8983 16.9393 10.8983C17.492 10.8983 17.7159 11.3567 17.7159 11.8729C17.7159 12.3819 17.4884 12.8403 16.9393 12.8403ZM16.9393 13.6778C18.0808 13.6778 18.9513 13.0136 18.9513 11.8729C18.9513 10.725 18.0808 10.0608 16.9393 10.0608C15.7979 10.0608 14.9274 10.725 14.9274 11.8729C14.9274 13.0136 15.7943 13.6778 16.9393 13.6778Z" fill="#FF0007"/>
<path opacity="0.25" d="M35.564 24H2.436C1.092 24 0 22.923 0 21.6V2.4C0 1.077 1.092 0 2.436 0H35.564C36.908 0 38 1.077 38 2.4V21.6C38 22.923 36.908 24 35.564 24ZM2.436 0.959999C1.63 0.959999 0.973999 1.606 0.973999 2.4V21.6C0.973999 22.394 1.63 23.04 2.436 23.04H35.564C36.37 23.04 37.026 22.394 37.026 21.6V2.4C37.026 1.606 36.37 0.959999 35.564 0.959999H2.436Z" fill="#A7A8AB"/>
</svg>
