<svg width="38" height="24" viewBox="0 0 38 24" fill="none" xmlns="http://www.w3.org/2000/svg">
<path d="M36.0151 24H1.98493C1.45899 23.9984 0.955061 23.7856 0.583166 23.4081C0.211271 23.0306 0.00162411 22.5191 0 21.9853V2.01467C0.00162411 1.48085 0.211271 0.969371 0.583166 0.591904C0.955061 0.214436 1.45899 0.00164844 1.98493 0H36.0151C36.541 0.00164844 37.0449 0.214436 37.4168 0.591904C37.7887 0.969371 37.9984 1.48085 38 2.01467V21.9853C37.9984 22.5191 37.7887 23.0306 37.4168 23.4081C37.0449 23.7856 36.541 23.9984 36.0151 24Z" fill="white"/>
<path d="M9 3V21.0963H19.5488C26.5075 21.0963 29.5251 17.1988 29.5251 12.0304C29.5251 6.88217 26.5075 3 19.5488 3H9Z" fill="white"/>
<path d="M10.1404 4.14136H19.5505C25.9374 4.14136 28.3855 7.62968 28.3855 12.0301C28.3855 17.3067 24.9669 19.9543 19.5505 19.9543H10.1404V4.14136ZM11.0526 5.05374V19.0425H19.5505C24.681 19.0425 27.4724 16.6515 27.4724 12.0301C27.4724 7.28074 24.4464 5.05346 19.5505 5.05346H11.0526V5.05374Z" fill="black"/>
<path d="M12.1926 13.0588H14.9129V17.9011H12.1926V13.0588Z" fill="black"/>
<path d="M13.5522 12.31C14.4859 12.31 15.2429 11.553 15.2429 10.6191C15.2429 9.68526 14.4859 8.92822 13.5522 8.92822C12.6185 8.92822 11.8616 9.68526 11.8616 10.6191C11.8616 11.553 12.6185 12.31 13.5522 12.31Z" fill="black"/>
<path d="M20.6176 11.4102V12.1943H18.6793V9.04791H20.5557V9.83171H19.463V10.196H20.4963V10.9801H19.463V11.4105L20.6176 11.4102ZM20.9567 12.1948L21.9053 9.0468H23.0203L23.9685 12.1948H23.1527L22.9748 11.5859H21.9496L21.7714 12.1948H20.9567ZM22.1794 10.8027H22.7467L22.4865 9.91344H22.4391L22.1794 10.8027ZM24.3626 9.04708H25.1468V11.4105H26.3076C25.9891 7.12217 22.6167 6.19556 19.5506 6.19556H16.2828V9.04875H16.7664C17.6482 9.04875 18.1957 9.64678 18.1957 10.6091C18.1957 11.6021 17.6613 12.1948 16.7664 12.1948H16.2828V17.9034H19.5508C24.5335 17.9034 26.2688 15.5889 26.3302 12.1943H24.3626V9.04708ZM16.2822 9.83255V11.4105H16.7664C17.1019 11.4105 17.412 11.3134 17.412 10.6088C17.412 9.92069 17.067 9.83255 16.7664 9.83255H16.2822Z" fill="#D50072"/>
<path opacity="0.25" d="M35.564 24H2.436C1.092 24 0 22.923 0 21.6V2.4C0 1.077 1.092 0 2.436 0H35.564C36.908 0 38 1.077 38 2.4V21.6C38 22.923 36.908 24 35.564 24ZM2.436 0.959999C1.63 0.959999 0.973999 1.606 0.973999 2.4V21.6C0.973999 22.394 1.63 23.04 2.436 23.04H35.564C36.37 23.04 37.026 22.394 37.026 21.6V2.4C37.026 1.606 36.37 0.959999 35.564 0.959999H2.436Z" fill="#A7A8AB"/>
</svg>
