<?xml version="1.0" encoding="utf-8"?>
<!-- Generator: Adobe Illustrator 23.1.1, SVG Export Plug-In . SVG Version: 6.00 Build 0)  -->
<svg version="1.1" id="图层_1" xmlns="http://www.w3.org/2000/svg" xmlns:xlink="http://www.w3.org/1999/xlink" x="0px" y="0px"
	 viewBox="0 0 16242.52 8362.21" style="enable-background:new 0 0 16242.52 8362.21;" xml:space="preserve">
<style type="text/css">
	.st0{fill:#FF2C24;}
	.st1{fill:none;stroke:#000000;stroke-width:6;stroke-miterlimit:10;}
	.st2{fill:#0060AA;}
	.st3{clip-path:url(#SVGID_2_);}
	.st4{clip-path:url(#SVGID_4_);fill:#0060AA;}
	.st5{clip-path:url(#SVGID_6_);}
	.st6{clip-path:url(#SVGID_8_);}
	.st7{clip-path:url(#SVGID_10_);}
	.st8{clip-path:url(#SVGID_12_);}
	.st9{clip-path:url(#SVGID_14_);fill:#FF2C24;}
	.st10{clip-path:url(#SVGID_16_);}
	.st11{clip-path:url(#SVGID_18_);fill:#59144F;}
	.st12{fill-rule:evenodd;clip-rule:evenodd;fill:#1A1D3A;}
	.st13{fill-rule:evenodd;clip-rule:evenodd;fill:#8E1FB2;}
</style>
<path class="st0" d="M6107,3387l-87.92,968.09c-1.18,12.97-12.06,22.91-25.08,22.91h-261.56c-15.12,0-26.83-13.22-25-28.23
	l106.58-866.53c0.97-7.98-6.17-14.56-14.05-12.93l-74.09,22.92c-13.31,2.75-25.16-8.86-22.68-22.23l22.76-122.4
	c5.54-29.81,27.38-53.96,56.49-62.47l307.07-89.76c17.05-4.98,33.76,8.75,32.18,26.44L6107,3387z"/>
<path class="st0" d="M6107,3386l-87.92,968.09c-1.18,12.97-12.06,22.91-25.08,22.91h-261.56c-15.12,0-26.83-13.22-25-28.23
	l106.58-866.53c0.97-7.98-6.17-14.56-14.05-12.93l-74.09,22.92c-13.31,2.75-25.16-8.86-22.68-22.23l22.76-122.4
	c5.54-29.81,27.38-53.96,56.49-62.47l307.07-89.76c17.05-4.98,33.76,8.75,32.18,26.44L6107,3386z"/>
<path class="st1" d="M6617.5,3542"/>
<path class="st2" d="M6653,3567.5c0,3.76-0.58,7.29-1.67,10.56l-1.4,3.82c-7.91,20.4-29.7,77.45-48.93,135.13
	c-27.67,83.02-37.18,152.82-37.18,152.82l2.56-4.03c92.72-145.17,207.46-274.91,339.5-384.54l5.12-4.25c39.29-35.85,92.62-58,150-58
	h1h197h1.5c19.61,0,35.5,15.89,35.5,35.5c0,8.54-3.01,16.37-8.04,22.49c-1.6,1.95-3.39,3.72-5.36,5.29l-2.52,1.72
	c-221.33,139.79-407.21,330.59-541.08,556l-3.44,5.68C6696.91,4109.98,6626.48,4153,6546,4153h-2h-199h-2.5
	c-19.61,0-35.5-15.89-35.5-35.5v-2.5l90.15-396.84c-181.03,175.88-321.99,392.79-407.88,635.72l16.48-545.61
	c58.8-79.28,109.72-140.2,180.24-208.27l5.87-5.39c39.81-38.75,94.18-62.61,154.13-62.61h2h268h1.5
	C6637.11,3532,6653,3547.89,6653,3567.5"/>
<path class="st0" d="M6107,3385l-87.92,968.09c-1.18,12.97-12.06,22.91-25.08,22.91h-261.56c-15.12,0-26.83-13.22-25-28.23
	l106.58-866.53c0.97-7.98-6.17-14.56-14.05-12.93l-74.09,22.92c-13.31,2.75-25.16-8.86-22.68-22.23l22.76-122.4
	c5.54-29.81,27.38-53.96,56.49-62.47l307.07-89.76c17.05-4.98,33.76,8.75,32.18,26.44L6107,3385z"/>
<g>
	<defs>
		<path id="SVGID_1_" d="M6519.14,240.69c0,0.15-0.02,0.29-0.07,0.42l-0.06,0.15c-0.33,0.82-1.23,3.1-2.02,5.42
			c-1.14,3.33-1.54,6.13-1.54,6.13l0.11-0.16c3.83-5.82,8.57-11.02,14.02-15.41l0.21-0.17c1.62-1.44,3.82-2.32,6.19-2.32h0.04h8.13
			h0.06c0.81,0,1.47,0.64,1.47,1.42c0,0.34-0.12,0.66-0.33,0.9c-0.07,0.08-0.14,0.15-0.22,0.21l-0.1,0.07
			c-9.14,5.6-16.81,13.25-22.34,22.29l-0.14,0.23c-1.6,2.58-4.5,4.3-7.83,4.3h-0.08h-8.22h-0.1c-0.81,0-1.47-0.64-1.47-1.42v-0.1
			l3.72-15.91c-7.47,7.05-13.29,15.74-16.84,25.48l0.68-21.87c2.43-3.18,4.53-5.62,7.44-8.35l0.24-0.22
			c1.64-1.55,3.89-2.51,6.36-2.51h0.08h11.06h0.06C6518.48,239.26,6519.14,239.9,6519.14,240.69"/>
	</defs>
	<clipPath id="SVGID_2_">
		<use xlink:href="#SVGID_1_"  style="overflow:visible;"/>
	</clipPath>
	<g class="st3">
		<defs>
			<rect id="SVGID_3_" x="6256" y="204.91" width="1628" height="5443"/>
		</defs>
		<clipPath id="SVGID_4_">
			<use xlink:href="#SVGID_3_"  style="overflow:visible;"/>
		</clipPath>
		<rect x="6486.73" y="229.73" class="st4" width="63.95" height="47.47"/>
	</g>
</g>
<g>
	<defs>
		<rect id="SVGID_5_" x="6480" y="225.93" width="17.34" height="48.03"/>
	</defs>
	<clipPath id="SVGID_6_">
		<use xlink:href="#SVGID_5_"  style="overflow:visible;"/>
	</clipPath>
	<g class="st5">
		<defs>
			<rect id="SVGID_7_" x="6256" y="204.91" width="1628" height="5443"/>
		</defs>
		<clipPath id="SVGID_8_">
			<use xlink:href="#SVGID_7_"  style="overflow:visible;"/>
		</clipPath>
		<g class="st6">
			<g>
				<defs>
					<rect id="SVGID_9_" x="6479" y="224.91" width="19" height="50"/>
				</defs>
				<clipPath id="SVGID_10_">
					<use xlink:href="#SVGID_9_"  style="overflow:visible;"/>
				</clipPath>
				<g class="st7">
					<defs>
						<path id="SVGID_11_" d="M6496.73,233.71l-3.64,39.31c-0.05,0.53-0.5,0.93-1.04,0.93h-10.83c-0.63,0-1.11-0.54-1.03-1.15
							l4.41-35.19c0.04-0.32-0.26-0.59-0.58-0.52l-3.07,0.93c-0.55,0.11-1.04-0.36-0.94-0.9l0.94-4.97
							c0.23-1.21,1.13-2.19,2.34-2.54l12.71-3.65c0.71-0.2,1.4,0.36,1.33,1.07L6496.73,233.71z"/>
					</defs>
					<clipPath id="SVGID_12_">
						<use xlink:href="#SVGID_11_"  style="overflow:visible;"/>
					</clipPath>
					<g class="st8">
						<defs>
							<rect id="SVGID_13_" x="6480" y="225.91" width="18" height="49"/>
						</defs>
						<clipPath id="SVGID_14_">
							<use xlink:href="#SVGID_13_"  style="overflow:visible;"/>
						</clipPath>
						<rect x="6475" y="220.93" class="st9" width="27.34" height="58.03"/>
					</g>
				</g>
			</g>
		</g>
	</g>
</g>
<g>
	<defs>
		<path id="SVGID_15_" d="M6495.55,246.49l-2.43,26.48c-0.05,0.54-0.47,0.99-0.98,0.99h-10.98c-0.59,0-1.05-0.59-0.98-1.21
			c0,0,2.31-5.33,5.72-11.21C6488.17,257.62,6491.39,252.61,6495.55,246.49z"/>
	</defs>
	<clipPath id="SVGID_16_">
		<use xlink:href="#SVGID_15_"  style="overflow:visible;"/>
	</clipPath>
	<g class="st10">
		<defs>
			<rect id="SVGID_17_" x="6256" y="204.91" width="1628" height="5443"/>
		</defs>
		<clipPath id="SVGID_18_">
			<use xlink:href="#SVGID_17_"  style="overflow:visible;"/>
		</clipPath>
		<rect x="6475.16" y="241.49" class="st11" width="25.39" height="37.46"/>
	</g>
</g>
<path class="st12" d="M10630.78,3558.71h154.28l90.79,153.67l90.79-153.67H11120l-174.83,264.5v190.61h-139.25v-190.61
	L10630.78,3558.71z M10435.08,3840.28l-49.69-163.6l-49.38,163.6H10435.08z M10464.22,3938.69h-158.27l-21.78,75.13h-142.01
	l169.01-455.11h151.52l169,455.11h-145.39L10464.22,3938.69z M9513.07,3558.71h131.89l47.54,254.25l69.32-254.25h131.58
	l69.63,254.25l47.54-254.25h131.28l-99.07,455.11H9906.6l-78.83-286.54l-78.52,286.54h-136.19L9513.07,3558.71z M9212.17,3743.12
	h58.58c6.34,0,18.61-2.07,36.81-6.21c9.2-1.86,16.72-6.62,22.54-14.28s8.74-16.45,8.74-26.39c0-14.69-4.6-25.97-13.8-33.84
	c-9.2-7.86-26.48-11.8-51.84-11.8h-61.04V3743.12z M9072.62,4013.82v-455.11h231.58c42.94,0,75.76,3.73,98.46,11.18
	c22.7,7.45,41,21.27,54.9,41.44c13.9,20.18,20.86,44.76,20.86,73.73c0,25.25-5.32,47.03-15.95,65.35
	c-10.63,18.32-25.25,33.17-43.86,44.55c-11.86,7.24-28.12,13.25-48.77,18.01c16.56,5.59,28.63,11.18,36.19,16.76
	c5.11,3.73,12.52,11.69,22.24,23.9c9.71,12.21,16.21,21.63,19.48,28.25l67.17,131.94h-157.04l-74.23-139.08
	c-9.41-18.01-17.79-29.7-25.15-35.08c-10.02-7.04-21.37-10.55-34.05-10.55h-12.27v184.71H9072.62z M8616.82,3558.71h372.36v97.17
	h-233.11v72.33h216.24v92.82h-216.24v89.72h239.86v103.07h-379.11V3558.71z M8094.78,3558.71h129.74l169.31,251.77v-251.77h130.97
	v455.11h-130.97l-168.39-249.91v249.91h-130.66V3558.71z M7692.05,3787.2c0,45.95,8.43,78.96,25.3,99.03
	c16.87,20.08,39.82,30.11,68.86,30.11c29.85,0,52.96-9.83,69.32-29.49c16.36-19.66,24.54-54.95,24.54-105.86
	c0-42.84-8.54-74.14-25.61-93.91c-17.07-19.76-40.23-29.65-69.47-29.65c-28.01,0-50.51,10.04-67.48,30.11
	S7692.05,3740.84,7692.05,3787.2z M7553.1,3786.58c0-74.3,20.45-132.15,61.34-173.54c40.9-41.39,97.84-62.09,170.85-62.09
	c74.84,0,132.5,20.33,172.99,61c40.49,40.67,60.73,97.63,60.73,170.9c0,53.19-8.84,96.81-26.53,130.85s-43.25,60.54-76.68,79.47
	c-33.43,18.94-75.1,28.41-124.99,28.41c-50.71,0-92.68-8.18-125.91-24.53c-33.23-16.35-60.17-42.22-80.82-77.61
	C7563.43,3884.06,7553.1,3839.77,7553.1,3786.58z"/>
<path class="st13" d="M6076.92,3719l-58.21,633.38c-1.11,12.83-11.31,23.62-23.54,23.62h-262.71c-14.19,0-25.18-14.04-23.46-28.89
	c0,0,55.17-127.55,136.93-268.11C5900.44,3985.3,5977.44,3865.3,6076.92,3719z"/>
</svg>
