<svg width="52" height="16" fill="none" xmlns="http://www.w3.org/2000/svg"><g clip-path="url(#clip0_1082_47524)" fill="#2B96D4"><path d="M2.572 3.05H0v12.21c0 .304.17.572.435.68a.724.724 0 00.912-.327.71.71 0 00.078-.346v-3.063H2.57a2.57 2.57 0 002.573-2.572V5.619A2.57 2.57 0 002.57 3.046l.003.004zm1.144 6.586c0 .634-.513 1.144-1.144 1.144H1.428V4.475h1.144c.635 0 1.144.513 1.144 1.144v4.017zm4.093-6.652c-.35.053-.599.376-.599.732v7.826c0 .353.246.68.599.732a.71.71 0 00.83-.706V3.687a.711.711 0 00-.83-.706v.003zM8.172.033A.903.903 0 007.06 1.144.902.902 0 108.171.033zm5.331 3.017H10.93v8.495c0 .304.17.572.435.68a.724.724 0 00.912-.327.71.71 0 00.078-.347V4.475H13.5c.634 0 1.144.513 1.144 1.144v5.923c0 .297.174.572.435.68.3.127.657.035.863-.249a.73.73 0 00.127-.435V5.622a2.571 2.571 0 00-2.572-2.572h.007zm4.491 2.572v4.014a2.57 2.57 0 002.572 2.572h1.144v1.22c0 .634-.52 1.153-1.154 1.153-.35 0-.634-.196-.814-.36a.717.717 0 00-.99.017.676.676 0 00-.219.484.714.714 0 00.216.523 2.606 2.606 0 002.883.52c.915-.409 1.51-1.35 1.51-2.403V3.05h-2.573a2.571 2.571 0 00-2.572 2.572h-.003zm3.716 5.161h-1.144a1.143 1.143 0 01-1.144-1.144V5.625c0-.634.513-1.144 1.144-1.144h1.144v6.306-.004zm6.217-7.733h-2.572v12.21c0 .298.173.572.435.68a.724.724 0 00.912-.32.704.704 0 00.081-.347v-3.066h1.144A2.57 2.57 0 0030.5 9.636V5.622a2.57 2.57 0 00-2.573-2.572zm1.144 6.586c0 .634-.513 1.144-1.144 1.144h-1.144V4.475h1.144c.634 0 1.144.513 1.144 1.144v4.017zm5.413-6.626c-1.252.206-2.137 1.337-2.137 2.606v4.023c0 1.269.889 2.4 2.137 2.605a2.578 2.578 0 003.008-2.536V5.544a2.576 2.576 0 00-3.008-2.537v.003zm1.58 6.652c0 .588-.478 1.15-1.063 1.19a1.137 1.137 0 01-1.23-1.144V5.544c0-.67.547-1.187 1.23-1.144.588.039 1.062.601 1.062 1.19v4.072zM42.13 3.05h-2.573v8.495c0 .297.173.572.435.68a.716.716 0 00.994-.687V4.475h1.144c.634 0 1.144.513 1.144 1.144v5.923c0 .304.17.572.434.68a.727.727 0 00.912-.324.704.704 0 00.082-.347V5.622A2.571 2.571 0 0042.13 3.05zm4.49 2.572v4.014a2.57 2.57 0 002.573 2.572h1.144v1.22c0 .634-.52 1.153-1.154 1.153-.35 0-.634-.196-.817-.36a.717.717 0 00-.99.02.677.677 0 00-.22.484.713.713 0 00.216.523 2.606 2.606 0 002.883.52c.915-.409 1.507-1.35 1.507-2.402V3.05H49.19a2.571 2.571 0 00-2.573 2.572h.004zm3.717 5.161h-1.144a1.143 1.143 0 01-1.144-1.144V5.625c0-.634.513-1.144 1.144-1.144h1.144v6.306-.004z"/></g><defs><clipPath id="clip0_1082_47524"><path fill="#fff" d="M0 0h51.766v16H0z"/></clipPath></defs></svg>