<?xml version="1.0" standalone="no"?><!DOCTYPE svg PUBLIC "-//W3C//DTD SVG 1.1//EN" "http://www.w3.org/Graphics/SVG/1.1/DTD/svg11.dtd"><svg t="1670305419736" class="icon" viewBox="0 0 2469 1024" version="1.1" xmlns="http://www.w3.org/2000/svg" p-id="3072" xmlns:xlink="http://www.w3.org/1999/xlink" width="482.2265625" height="200"><path d="M2164.934899 477.57524c4.917823-80.870864 26.774813-118.574173 68.303095-118.574173 40.981857 0 61.745998 38.796158 65.024546 118.574173h-133.327641z m303.265741 48.085379c0-90.160085-19.671291-161.741729-58.467449-212.012807-39.342583-50.817503-98.356457-77.045891-173.216649-77.045891-153.545358 0-249.169691 113.65635-249.16969 295.615795 0 102.18143 25.681964 178.680896 75.953041 227.3127 45.353255 43.713981 109.831377 65.570971 193.98079 65.570971 77.045891 0 148.627535-18.032017 193.98079-48.085378l-19.671292-124.038421c-44.260406 24.042689-96.170758 37.156884-154.638207 37.156884-34.971185 0-59.013874-7.103522-76.499466-22.403415-19.124867-15.846318-30.053362-42.074707-33.33191-79.231591h299.440768c0-8.742796 1.639274-49.724653 1.639274-62.838847z m-722.919957 122.399146c-14.753469 27.867663-37.156884 42.074707-63.385272 42.074707-18.032017 0-34.42476-3.824973-48.631804-10.928495V409.81857c30.599787-32.239061 58.467449-35.517609 68.303095-35.517609 45.89968 0 68.303095 49.724653 68.303095 146.441835 0 55.188901-7.649947 98.356457-24.589114 127.316969z m150.266809-349.711846c-32.239061-41.528282-76.499466-61.745998-133.327641-61.745998-52.456777 0-98.356457 21.85699-141.524013 67.75667l-9.289221-56.828175h-159.009605v776.469584l180.866595-30.053362v-181.959445c27.867663 8.742796 56.28175 13.114194 81.417289 13.114194 45.353255 0 110.924226-11.47492 161.741729-67.210245 48.631804-53.003202 73.767343-135.51334 73.767343-244.251868 0-95.624333-18.578442-168.298826-54.642476-215.291355z m-695.598719-50.817503h181.41302v566.642476h-181.41302V247.530416z m91.252935-56.28175c52.456777 0 94.531483-43.167556 94.531483-95.624333 0-53.003202-42.074707-95.624333-94.531483-95.624333-53.003202 0-95.624333 42.074707-95.624333 95.624333 0 53.003202 42.074707 95.624333 95.624333 95.624333z m-169.391676 48.631804c-50.817503 0-91.79936 26.774813-107.645678 74.860192l-10.928495-67.210246h-157.916755v566.642476h180.866595V446.429029c22.403415-27.867663 54.642476-37.703308 98.356457-37.703309 9.289221 0 19.671291 0 32.239061 2.185699V244.251868c-13.114194-3.278549-24.042689-4.371398-34.971185-4.371398z m-346.433298 141.524012l21.856991-133.874066h-115.295625V84.695838l-155.184631 25.681963-22.403416 137.152615-54.642476 8.742796-20.217716 125.13127h74.860192v262.83031c0 68.303095 17.485592 115.842049 53.003202 144.802561 30.053362 24.042689 72.674493 35.517609 133.327641 35.51761 46.446105 0 74.860192-8.196371 94.531484-13.114195v-142.070437c-10.928495 2.732124-35.517609 8.196371-52.456777 8.196371-35.517609 0-50.817503-18.032017-50.817503-59.560299V381.404482h93.438634zM257.912487 461.182497c-53.003202-19.671291-82.510139-34.971185-82.510139-59.013874 0-20.217716 16.939168-32.239061 46.446105-32.239061 54.642476 0 110.924226 21.310566 149.173959 39.889008l21.85699-134.966916c-30.599787-14.753469-93.438634-38.796158-179.773746-38.796158-61.199573 0-112.017076 15.846318-148.627534 45.89968-37.703308 31.146211-57.3746 76.499466-57.3746 131.141942 0 98.902882 60.653148 141.524013 159.009605 177.041623C229.498399 612.542156 250.808965 628.934899 250.808965 653.524013c0 24.042689-20.217716 37.703308-57.3746 37.703308-45.89968 0-121.852721-22.403415-171.03095-51.910352L0 776.469584c42.074707 24.042689 120.759872 48.631804 202.723586 48.631803 65.024546 0 118.574173-15.299893 155.184632-44.260405 40.981857-32.239061 61.745998-79.23159 61.745998-140.431163 0-101.635005-61.745998-143.709712-161.741729-179.227322z" fill="#6673df" p-id="3073"></path></svg>