<svg width="38" height="24" viewBox="0 0 38 24" fill="none" xmlns="http://www.w3.org/2000/svg">
<path d="M36.0151 24H1.98493C1.45899 23.9984 0.955061 23.7856 0.583166 23.4081C0.211271 23.0306 0.00162411 22.5191 0 21.9853V2.01467C0.00162411 1.48085 0.211271 0.969371 0.583166 0.591904C0.955061 0.214436 1.45899 0.00164844 1.98493 0H36.0151C36.541 0.00164844 37.0449 0.214436 37.4168 0.591904C37.7887 0.969371 37.9984 1.48085 38 2.01467V21.9853C37.9984 22.5191 37.7887 23.0306 37.4168 23.4081C37.0449 23.7856 36.541 23.9984 36.0151 24Z" fill="white"/>
<path d="M6.59409 13.1919C6.55128 13.2135 6.50312 13.226 6.45186 13.226C6.33322 13.226 6.23023 13.1608 6.17603 13.0643L6.15532 13.0189L5.29191 11.1243C5.2826 11.1037 5.27686 11.0805 5.27686 11.0577C5.27686 10.9704 5.34759 10.8996 5.4349 10.8996C5.47034 10.8996 5.50315 10.9114 5.52951 10.931L6.54833 11.6564C6.62278 11.7051 6.71173 11.7336 6.80734 11.7336C6.86434 11.7336 6.91878 11.723 6.9695 11.7046L11.7608 9.57215C10.9019 8.55992 9.48755 7.89844 7.88689 7.89844C5.26763 7.89844 3.14453 9.66777 3.14453 11.8506C3.14453 13.0413 3.78329 14.1133 4.78312 14.8378C4.8633 14.895 4.91588 14.9892 4.91588 15.0953C4.91588 15.1304 4.90835 15.1626 4.8992 15.196C4.81933 15.4939 4.69153 15.9709 4.68548 15.9933C4.67556 16.0306 4.66005 16.0696 4.66005 16.1088C4.66005 16.1961 4.73077 16.2668 4.81824 16.2668C4.85244 16.2668 4.88052 16.2541 4.90944 16.2375L5.94765 15.638C6.02582 15.593 6.10841 15.565 6.1996 15.565C6.24799 15.565 6.29483 15.5725 6.33888 15.586C6.82324 15.7253 7.34584 15.8027 7.88689 15.8027C10.5061 15.8027 12.6295 14.0332 12.6295 11.8506C12.6295 11.1894 12.4335 10.5669 12.0892 10.0191L6.62867 13.1719L6.59409 13.1919Z" fill="#40B93C"/>
<path d="M17.7402 12.4319L17.6772 12.6555C17.6245 12.8421 17.578 13.0068 17.5378 13.1696C17.4866 12.9296 17.4156 12.6613 17.3519 12.4246L16.9293 10.831L16.9219 10.8027H16.6449L16.1722 12.435C16.0875 12.7111 16.0125 12.9603 15.9599 13.1784C15.9194 13.006 15.8707 12.8138 15.8196 12.6119L15.3612 10.831L15.3535 10.8027H15.0338L15.8018 13.7109L15.8092 13.7394H16.0818L16.5757 12.0733C16.6619 11.7892 16.7268 11.566 16.7738 11.3709C16.8158 11.5769 16.8742 11.8031 16.9474 12.0713L17.3743 13.7111L17.3816 13.7394H17.6583L18.5237 10.8517L18.5386 10.8027H18.2173L17.7402 12.4319Z" fill="#40B93C"/>
<path d="M18.9099 12.4422C18.9877 12.0048 19.2749 11.8482 19.5206 11.8482C19.6768 11.8482 19.802 11.8951 19.8934 11.9882C20.0283 12.1251 20.0588 12.3237 20.0642 12.4422H18.9099ZM19.5458 11.5701C18.9711 11.5701 18.585 12.0304 18.585 12.7156C18.585 13.353 18.9846 13.7813 19.5794 13.7813C19.9533 13.7813 20.1656 13.6854 20.2396 13.6445L20.2851 13.619L20.1504 13.3858L20.1187 13.4004C20.0135 13.4491 19.8703 13.4989 19.6047 13.4989C19.1691 13.4989 18.9109 13.2124 18.8932 12.7121H20.3661L20.3758 12.6687C20.3852 12.625 20.3852 12.5931 20.3852 12.5352C20.3852 12.4567 20.3743 12.1821 20.2323 11.9437C20.085 11.6957 19.854 11.5701 19.5458 11.5701Z" fill="#40B93C"/>
<path d="M22.7571 13.3819H22.7569C22.598 13.455 22.3753 13.4989 22.1608 13.4989C21.4472 13.4989 21.0211 13.0478 21.0211 12.2921C21.0211 11.5076 21.4597 11.039 22.1944 11.039C22.3977 11.039 22.5908 11.0773 22.7386 11.1468L22.7704 11.1618L22.9139 10.9127L22.871 10.8892C22.8143 10.858 22.5978 10.7566 22.1902 10.7566C21.2994 10.7566 20.7009 11.3719 20.7009 12.2878C20.7009 13.3901 21.4513 13.7813 22.0938 13.7813C22.4558 13.7813 22.738 13.7047 22.8816 13.633L22.9285 13.6093L22.7887 13.3673L22.7571 13.3819Z" fill="#40B93C"/>
<path d="M24.2083 11.5701C24.0511 11.5701 23.9004 11.6133 23.7739 11.6947C23.7011 11.7365 23.6333 11.7941 23.5755 11.863V10.7566H23.264V13.7393H23.5755V12.4557C23.5755 12.3787 23.579 12.329 23.5976 12.2727C23.685 12.0278 23.9137 11.8566 24.1537 11.8566C24.5872 11.8566 24.652 12.2554 24.652 12.4934V13.7393H24.9637V12.4725C24.9637 11.6135 24.3343 11.5701 24.2083 11.5701Z" fill="#40B93C"/>
<path d="M27.7463 11.1639H27.4343V11.6356H27.0947V11.8902H27.4343V13.1056C27.4343 13.3476 27.4796 13.5169 27.5719 13.6217C27.6555 13.7287 27.7896 13.7854 27.9592 13.7854C28.077 13.7854 28.1792 13.7669 28.2624 13.7305L28.3126 13.7085L28.1816 13.4818L28.1545 13.4878C28.1073 13.4978 28.0502 13.5029 27.9846 13.5029C27.8175 13.5029 27.7463 13.3954 27.7463 13.1433V11.8902H28.3208V11.6356H27.7463V11.1639Z" fill="#40B93C"/>
<path d="M30.0061 11.0842C30.0671 11.074 30.1817 11.06 30.3491 11.06C30.8044 11.06 31.0655 11.2752 31.0655 11.6505C31.0655 12.055 30.7906 12.2871 30.3115 12.2871C30.2186 12.2871 30.1014 12.2838 30.0061 12.2592V11.0842ZM30.3575 10.7819C30.1508 10.7819 29.9429 10.8005 29.7399 10.837L29.6943 10.8452V13.7395H30.0061V12.5461C30.0901 12.5617 30.1832 12.5652 30.2949 12.5652C30.6686 12.5652 30.9779 12.447 31.166 12.2328C31.3079 12.0768 31.3773 11.8795 31.3773 11.6294C31.3773 11.3853 31.2961 11.1804 31.1424 11.0364C30.9719 10.87 30.7005 10.7819 30.3575 10.7819Z" fill="#40B93C"/>
<path d="M34.8099 11.6162L34.3062 12.9555C34.2658 13.0607 34.2301 13.1655 34.2 13.2546C34.1683 13.1571 34.133 13.057 34.0988 12.9675L33.5703 11.651L33.5566 11.6162H33.2236L34.0004 13.5578C34.0213 13.6106 34.0218 13.6249 34.0218 13.6249C34.0218 13.6387 34.0108 13.667 34.0008 13.692C33.9006 13.9298 33.7696 14.0893 33.6778 14.181C33.5515 14.3025 33.415 14.3651 33.3447 14.3913L33.2882 14.412L33.5231 14.6555C33.5762 14.6355 33.6589 14.5746 33.8153 14.4427C34.0834 14.2089 34.2528 13.8535 34.5098 13.1933L35.1229 11.6685L35.1445 11.6162H34.8099Z" fill="#40B93C"/>
<path d="M25.7428 12.8587C25.8785 12.7271 26.1331 12.6605 26.4999 12.6605L26.5378 12.6607L26.5384 13.0384C26.5384 13.0649 26.5354 13.1042 26.5203 13.1421C26.4601 13.3188 26.2858 13.5074 25.9773 13.5074C25.8169 13.5074 25.6299 13.4119 25.6299 13.1434C25.6299 13.0273 25.6678 12.9317 25.7428 12.8587ZM26.8501 13.2061V12.418C26.8501 11.8632 26.5902 11.5701 26.0988 11.5701C25.8817 11.5701 25.6491 11.6378 25.4776 11.7507L25.4453 11.7701L25.5806 12.0042L25.6147 11.9815C25.7407 11.8956 25.9053 11.8481 26.0778 11.8481H26.085C26.2236 11.8481 26.3314 11.8853 26.4053 11.9587C26.4947 12.0472 26.5382 12.1862 26.5384 12.3832C26.0569 12.3848 25.7093 12.4879 25.5049 12.6904C25.3754 12.8187 25.3098 12.9823 25.3098 13.1767C25.3098 13.4699 25.5121 13.7855 25.9563 13.7855C26.266 13.7855 26.4642 13.6357 26.5681 13.5261L26.5896 13.7394H26.8888L26.8786 13.6754C26.8536 13.5203 26.8501 13.3582 26.8501 13.2061Z" fill="#40B93C"/>
<path d="M32.6802 13.0384C32.6802 13.065 32.6772 13.1047 32.6623 13.1421C32.6019 13.3186 32.4277 13.5074 32.1192 13.5074C31.9589 13.5074 31.7718 13.4119 31.7718 13.1434C31.7718 13.0273 31.8097 12.9317 31.8848 12.8587C32.0204 12.7271 32.2752 12.6605 32.6416 12.6605L32.68 12.6607L32.6802 13.0384ZM32.9919 13.206V12.4181C32.9919 11.8632 32.7322 11.5701 32.2407 11.5701C32.036 11.5701 31.8128 11.6322 31.6437 11.7361L31.6124 11.7558L31.7462 11.9874L31.7796 11.9665C31.9024 11.8903 32.0587 11.8481 32.2199 11.8481H32.2273C32.3654 11.8481 32.4732 11.8853 32.5474 11.9587C32.6366 12.0473 32.68 12.1862 32.6802 12.3832C32.1992 12.3848 31.8516 12.4882 31.6469 12.6904C31.5175 12.8187 31.4519 12.9822 31.4519 13.1768C31.4519 13.4698 31.6542 13.7855 32.0981 13.7855C32.408 13.7855 32.6064 13.6359 32.7101 13.526L32.7314 13.7394H33.0311L33.0208 13.6754C32.9954 13.5197 32.9919 13.3579 32.9919 13.206Z" fill="#40B93C"/>
<path opacity="0.25" d="M35.564 24H2.436C1.092 24 0 22.923 0 21.6V2.4C0 1.077 1.092 0 2.436 0H35.564C36.908 0 38 1.077 38 2.4V21.6C38 22.923 36.908 24 35.564 24ZM2.436 0.959999C1.63 0.959999 0.973999 1.606 0.973999 2.4V21.6C0.973999 22.394 1.63 23.04 2.436 23.04H35.564C36.37 23.04 37.026 22.394 37.026 21.6V2.4C37.026 1.606 36.37 0.959999 35.564 0.959999H2.436Z" fill="#A7A8AB"/>
</svg>
