<svg width="91" height="16" fill="none" xmlns="http://www.w3.org/2000/svg"><path d="M33.923 13.01H31.13l-.926-4.28-1.25 4.28h-2.75L23.79 5.292h2.33l1.6 5.235 1.445-5.235h2.147l1.39 5.235 1.544-5.235h2.273l-2.596 7.72zm3.733-7.719h2.288v7.72h-2.288V5.29zm8.913 7.719h2.315s.014-4.73 0-4.743c.014-5.165-7.003-2.527-7.003-2.527v7.256h2.288V7.27s2.386-.631 2.386.87l.014 4.87zm4.281-7.719h4.659v1.98h-4.66V5.29z" fill="#030817"/><path d="M55.55 11.747s.24 1.081.211 1.081c-4.884 1.558-4.912-1.642-4.912-1.642V2.625l2.232-.772v8.673s.168 1.39 2.316.534l.154.687zm4.97-6.597h-.87a3.223 3.223 0 00-3.215 3.215V9.95a3.223 3.223 0 003.214 3.214h.884a3.223 3.223 0 003.214-3.214V8.365A3.225 3.225 0 0060.52 5.15zm.926 5.096c0 .645-.534 1.179-1.18 1.179h-.322c-.646 0-1.165-.52-1.165-1.165V8.112c0-.645.52-1.165 1.165-1.165h.323c.645 0 1.179.52 1.179 1.165v2.134zm11.34-2.162c-.351-4.673-7.158-2.428-7.158-2.428v10.302h2.33v-3.032s4.182 1.755 4.842-2.82a9.732 9.732 0 00-.014-2.022zm-2.26 1.88c0 .759-.617 1.362-1.361 1.362h-.323a.955.955 0 01-.954-.954v-2.99c0-.126.112-.238.238-.238h1.418c.533 0 .982.435.982.968v1.853zm15.411 6.008H83.34l1.292-2.667-2.653-8.014h2.288l1.67 5.235 1.656-5.235h2.302l-3.958 10.68zM74.456 5.6l.337 1.81s4.547-1.445 4.056.997c0 0-3.649-.898-4.379.982 0 0-1.29 3.51 1.825 3.748a12.33 12.33 0 002.961-.056l1.235-.295c.183-.042.38-.098.562-.154V7.116c-.014 0-.309-3.172-6.597-1.516zm4.365 5.88h-1.488a.764.764 0 01-.772-.743v-.224c0-.422.337-.759.758-.759h1.46a.12.12 0 01.112.113l.014 1.501c.014.057-.028.099-.084.113zM39.944 3.832l-2.288.547V2.386l2.288-.547v1.993z" fill="#030817"/><path d="M9.32 14.204H4.771L.056 3.158h3.509l3.495 8.098L11.986.182h3.55L9.32 14.203z" fill="#009DDF"/><path d="M16.238 14.204H11.79l-.912-2.134 1.698-3.888 1.446 2.892 3.523-7.916h3.537l-4.843 11.046zM8.477 6.498l1.53-3.34H7.003l1.474 3.34z" fill="#003088"/></svg>